<?xml version="1.0" encoding="UTF-8" standalone="no"?>
<!-- Created with Inkscape (http://www.inkscape.org/) -->

<svg
   width="180"
   height="180"
   viewBox="0 0 180 180"
   version="1.1"
   id="svg1"
   inkscape:version="1.4.2 (f4327f4, 2025-05-13)"
   sodipodi:docname="generic_song.svg"
   xmlns:inkscape="http://www.inkscape.org/namespaces/inkscape"
   xmlns:sodipodi="http://sodipodi.sourceforge.net/DTD/sodipodi-0.dtd"
   xmlns:xlink="http://www.w3.org/1999/xlink"
   xmlns="http://www.w3.org/2000/svg"
   xmlns:svg="http://www.w3.org/2000/svg">
  <sodipodi:namedview
     id="namedview1"
     pagecolor="#ffffff"
     bordercolor="#111111"
     borderopacity="1"
     inkscape:showpageshadow="0"
     inkscape:pageopacity="0"
     inkscape:pagecheckerboard="1"
     inkscape:deskcolor="#d1d1d1"
     inkscape:document-units="px"
     showguides="true"
     inkscape:zoom="5.6568542"
     inkscape:cx="58.424698"
     inkscape:cy="71.241008"
     inkscape:window-width="1920"
     inkscape:window-height="1009"
     inkscape:window-x="-8"
     inkscape:window-y="-7"
     inkscape:window-maximized="1"
     inkscape:current-layer="layer1">
    <sodipodi:guide
       position="-27.178218,90"
       orientation="0,1"
       id="guide1"
       inkscape:locked="false"
       inkscape:label=""
       inkscape:color="rgb(0,134,229)" />
    <sodipodi:guide
       position="90,-4.9009901"
       orientation="-1,0"
       id="guide4"
       inkscape:locked="false"
       inkscape:label=""
       inkscape:color="rgb(0,134,229)" />
  </sodipodi:namedview>
  <defs
     id="defs1">
    <linearGradient
       id="linearGradient13"
       inkscape:collect="always">
      <stop
         style="stop-color:#b3b3b3;stop-opacity:1;"
         offset="0"
         id="stop13" />
      <stop
         style="stop-color:#939393;stop-opacity:1;"
         offset="1"
         id="stop14" />
    </linearGradient>
    <linearGradient
       id="linearGradient10"
       inkscape:collect="always">
      <stop
         style="stop-color:#b3b3b3;stop-opacity:1;"
         offset="0"
         id="stop11" />
      <stop
         style="stop-color:#d5d5d5;stop-opacity:1;"
         offset="1"
         id="stop12" />
    </linearGradient>
    <linearGradient
       id="linearGradient9"
       inkscape:collect="always">
      <stop
         style="stop-color:#e6e6e6;stop-opacity:1;"
         offset="0"
         id="stop9" />
      <stop
         style="stop-color:#7b7b7b;stop-opacity:1;"
         offset="1"
         id="stop10" />
    </linearGradient>
    <linearGradient
       inkscape:collect="always"
       xlink:href="#linearGradient9"
       id="linearGradient8"
       x1="29.628716"
       y1="26.064358"
       x2="145.24753"
       y2="159.28218"
       gradientUnits="userSpaceOnUse" />
    <linearGradient
       inkscape:collect="always"
       xlink:href="#linearGradient10"
       id="linearGradient12"
       x1="25.39604"
       y1="7.3514853"
       x2="25.39604"
       y2="175.32178"
       gradientUnits="userSpaceOnUse" />
    <linearGradient
       inkscape:collect="always"
       xlink:href="#linearGradient13"
       id="linearGradient14"
       x1="110.71782"
       y1="0.61577815"
       x2="110.71782"
       y2="15.634766"
       gradientUnits="userSpaceOnUse" />
  </defs>
  <g
     inkscape:label="Layer 1"
     inkscape:groupmode="layer"
     id="layer1">
    <rect
       style="fill:url(#linearGradient12);stroke:#999999;stroke-width:1;stroke-dasharray:none;stroke-opacity:1;paint-order:fill markers stroke;fill-opacity:1"
       id="rect7"
       width="179"
       height="179"
       x="0.5"
       y="0.5"
       ry="11.361386" />
    <circle
       style="fill:url(#linearGradient8);stroke-width:1;paint-order:fill markers stroke;stroke:#999999;stroke-dasharray:none;stroke-opacity:1;fill-opacity:1"
       id="path1"
       cx="90"
       cy="90"
       r="80" />
    <g
       id="g6"
       style="fill:#f9f9f9;opacity:0.58872651">
      <path
         style="fill:#f9f9f9;stroke:none;stroke-width:1;stroke-dasharray:none;paint-order:fill markers stroke"
         id="path5"
         sodipodi:type="arc"
         sodipodi:cx="90"
         sodipodi:cy="90"
         sodipodi:rx="79.5"
         sodipodi:ry="79.5"
         sodipodi:start="0.98183649"
         sodipodi:end="1.7486871"
         sodipodi:arc-type="slice"
         d="M 134.16196,156.10576 A 79.5,79.5 0 0 1 75.932155,168.24542 L 90,90 Z" />
      <path
         style="fill:#f9f9f9;stroke:none;stroke-width:1;stroke-dasharray:none;paint-order:fill markers stroke"
         id="path6"
         sodipodi:type="arc"
         sodipodi:cx="90"
         sodipodi:cy="90"
         sodipodi:rx="79.5"
         sodipodi:ry="79.5"
         sodipodi:start="1.8796274"
         sodipodi:end="2.2557584"
         sodipodi:arc-type="slice"
         d="M 65.836355,165.73882 A 79.5,79.5 0 0 1 39.704831,151.56822 L 90,90 Z" />
    </g>
    <use
       x="0"
       y="0"
       xlink:href="#g6"
       id="use6"
       inkscape:transform-center-x="13.910758"
       inkscape:transform-center-y="-38.825252"
       transform="rotate(180,90,90)" />
    <path
       id="path4"
       style="fill:#666666;stroke:#333333;stroke-width:1;stroke-dasharray:none;paint-order:fill markers stroke"
       d="m 2,65 v 50 h 88 c 13.80712,0 25,-11.19288 25,-25 0,-13.807119 -11.19288,-25 -25,-25 z"
       sodipodi:nodetypes="ccsssc" />
    <rect
       style="opacity:1;fill:url(#linearGradient14);stroke:#999999;stroke-width:1.00087;stroke-dasharray:none;stroke-opacity:1;paint-order:fill markers stroke;fill-opacity:1"
       id="rect12"
       width="178.99913"
       height="15.018988"
       x="0.61577815"
       y="0.61577815" />
    <path
       style="fill:none;stroke:#666666;stroke-width:1px;stroke-linecap:butt;stroke-linejoin:miter;stroke-opacity:1"
       d="M 90.115343,3.861505 75.668672,12.389039 H 104.56201 Z"
       id="path14"
       sodipodi:nodetypes="cccc" />
    <path
       d="m 8.7414775,91.343995 v 0.368 q 0,0.352 0.092,0.576 0.096,0.224 0.272,0.352 0.18,0.124 0.432,0.168 0.256,0.048 0.5719995,0.048 h 2.624 q 0.32,0 0.576,-0.048 0.256,-0.044 0.432,-0.168 0.18,-0.128 0.272,-0.352 0.096,-0.224 0.096,-0.576 v -1.136 q 0,-0.344 -0.1,-0.556 -0.1,-0.216 -0.284,-0.336 -0.18,-0.12 -0.432,-0.16 -0.252,-0.044 -0.56,-0.044 H 9.8694775 q 0,0 0,0 0,0 0,0 0,0 0,0 0,0 0,0 v -1.36 q 0,0 0,0 0,0 0,0 0,0 0,0 0,0 0,0 h 3.1519995 q 0,0 0,0 0,0 0,0 0,0 0,0 0,0 0,0 v 0.72 l 1.008,-0.2 v -0.4 q 0,-0.344 -0.1,-0.556 -0.1,-0.216 -0.284,-0.336 -0.18,-0.12 -0.432,-0.16 -0.252,-0.044 -0.56,-0.044 h -2.424 q -0.3039995,0 -0.5559995,0.044 -0.252,0.04 -0.432,0.16 -0.18,0.12 -0.28,0.336 -0.1,0.212 -0.1,0.556 v 1.064 q 0,0.352 0.092,0.58 0.096,0.224 0.272,0.352 0.18,0.124 0.432,0.172 0.256,0.048 0.5719995,0.048 h 2.872 q 0,0 0,0 0,0 0,0 0,0 0,0 0,0 0,0 v 1.424 q 0,0 0,0 0,0 0,0 0,0 0,0 0,0 0,0 H 9.7494775 q 0,0 0,0 0,0 0,0 0,0 0,0 0,0 0,0 v -0.744 z m 8.5439965,1.456 v -2.448 l -2.656,-3.152 h 1.516 l 1.712,2.184 1.724,-2.184 h 1.312 l -2.552,3.148 v 2.452 z m 4.408007,0 v -5.6 h 0.816 l 3.928,3.936 v -3.936 h 0.976 v 5.6 h -0.816 l -3.928,-3.912 v 3.912 z m 7.320008,0 h 5.032 v -0.976 h -3.976 v -1.408 h 2.352 v -0.976 h -2.352 v -1.264 h 3.896 v -0.976 h -4.952 z m 5.952003,-1.456 v 0.368 q 0,0.352 0.092,0.576 0.096,0.224 0.272,0.352 0.18,0.124 0.432,0.168 0.256,0.048 0.572,0.048 h 2.624 q 0.32,0 0.576,-0.048 0.256,-0.044 0.432,-0.168 0.18,-0.128 0.272,-0.352 0.096,-0.224 0.096,-0.576 v -1.136 q 0,-0.344 -0.1,-0.556 -0.1,-0.216 -0.284,-0.336 -0.18,-0.12 -0.432,-0.16 -0.252,-0.044 -0.56,-0.044 h -2.864 q 0,0 0,0 0,0 0,0 0,0 0,0 0,0 0,0 v -1.36 q 0,0 0,0 0,0 0,0 0,0 0,0 0,0 0,0 h 3.152 q 0,0 0,0 0,0 0,0 0,0 0,0 0,0 0,0 v 0.72 l 1.008,-0.2 v -0.4 q 0,-0.344 -0.1,-0.556 -0.1,-0.216 -0.284,-0.336 -0.18,-0.12 -0.432,-0.16 -0.252,-0.044 -0.56,-0.044 h -2.424 q -0.304,0 -0.556,0.044 -0.252,0.04 -0.432,0.16 -0.18,0.12 -0.28,0.336 -0.1,0.212 -0.1,0.556 v 1.064 q 0,0.352 0.092,0.58 0.096,0.224 0.272,0.352 0.18,0.124 0.432,0.172 0.256,0.048 0.572,0.048 h 2.872 q 0,0 0,0 0,0 0,0 0,0 0,0 0,0 0,0 v 1.424 q 0,0 0,0 0,0 0,0 0,0 0,0 0,0 0,0 h -3.352 q 0,0 0,0 0,0 0,0 0,0 0,0 0,0 0,0 v -0.744 z m 8.191996,1.456 v -4.624 h -2.224 v -0.976 h 5.504 v 0.976 h -2.224 v 4.624 z m 4.160001,0 v -5.6 h 1.056 v 2.192 h 3.56 v -2.192 h 1.056 v 5.6 h -1.056 v -2.432 h -3.56 v 2.432 z m 7.272004,0 h 5.032 v -0.976 h -3.976 v -1.408 h 2.352 v -0.976 h -2.352 v -1.264 h 3.896 v -0.976 h -4.952 z m 5.952003,-1.456 v 0.368 q 0,0.352 0.092,0.576 0.096,0.224 0.272,0.352 0.18,0.124 0.432,0.168 0.256,0.048 0.572,0.048 h 2.624 q 0.32,0 0.576,-0.048 0.256,-0.044 0.432,-0.168 0.18,-0.128 0.272,-0.352 0.096,-0.224 0.096,-0.576 v -1.136 q 0,-0.344 -0.1,-0.556 -0.1,-0.216 -0.284,-0.336 -0.18,-0.12 -0.432,-0.16 -0.252,-0.044 -0.56,-0.044 h -2.864 q 0,0 0,0 0,0 0,0 0,0 0,0 0,0 0,0 v -1.36 q 0,0 0,0 0,0 0,0 0,0 0,0 0,0 0,0 h 3.152 q 0,0 0,0 0,0 0,0 0,0 0,0 0,0 0,0 v 0.72 l 1.008,-0.2 v -0.4 q 0,-0.344 -0.1,-0.556 -0.1,-0.216 -0.284,-0.336 -0.18,-0.12 -0.432,-0.16 -0.252,-0.044 -0.56,-0.044 h -2.424 q -0.304,0 -0.556,0.044 -0.252,0.04 -0.432,0.16 -0.18,0.12 -0.28,0.336 -0.1,0.212 -0.1,0.556 v 1.064 q 0,0.352 0.092,0.58 0.096,0.224 0.272,0.352 0.18,0.124 0.432,0.172 0.256,0.048 0.572,0.048 h 2.872 q 0,0 0,0 0,0 0,0 0,0 0,0 0,0 0,0 v 1.424 q 0,0 0,0 0,0 0,0 0,0 0,0 0,0 0,0 h -3.352 q 0,0 0,0 0,0 0,0 0,0 0,0 0,0 0,0 v -0.744 z m 6.687996,1.456 h 1.056 v -5.6 h -1.056 z m 1.856006,0 2.872,-5.6 h 0.832 l 2.912,5.6 h -1.248 l -0.668,-1.304 h -2.872 l -0.668,1.304 z m 2.32,-2.264 h 1.888 l -0.944,-1.836 z m 7.567997,2.264 v -5.6 h 3.768 q 0.304,0 0.556,0.044 0.252,0.04 0.432,0.16 0.184,0.12 0.284,0.336 0.104,0.212 0.104,0.556 v 1.284 q 0,0.26 -0.088,0.456 -0.084,0.196 -0.256,0.328 -0.172,0.128 -0.432,0.192 -0.256,0.064 -0.6,0.064 h -0.348 l 2.224,2.18 h -1.42 l -2.22,-2.18 h -0.948 v 2.18 z m 1.056,-3.156 h 2.608 q 0.104,0 0.184,-0.016 0.08,-0.02 0.132,-0.064 0.056,-0.044 0.08,-0.12 0.028,-0.08 0.028,-0.2 v -0.668 q 0,-0.104 -0.028,-0.18 -0.024,-0.076 -0.08,-0.124 -0.052,-0.048 -0.132,-0.072 -0.08,-0.024 -0.184,-0.024 h -2.608 z m 5.367991,-1.404 v 0 q 0,-0.344 0.1,-0.556 0.1,-0.216 0.28,-0.336 0.18,-0.12 0.432,-0.16 0.252,-0.044 0.556,-0.044 h 3.064 q 0.304,0 0.556,0.044 0.252,0.04 0.432,0.16 0.184,0.12 0.284,0.336 0.104,0.212 0.104,0.556 v 3.472 q 0,0.352 -0.096,0.576 -0.092,0.224 -0.272,0.352 -0.176,0.124 -0.432,0.168 -0.256,0.048 -0.576,0.048 h -3.064 q -0.32,0 -0.576,-0.048 -0.252,-0.048 -0.428,-0.172 -0.176,-0.128 -0.272,-0.348 -0.092,-0.224 -0.092,-0.576 z m 1.056,-0.12 v 3.76 q 0,0 0,0 0,0 0,0 0,0 0,0 0,0 0,0 h 3.696 q 0,0 0,0 0,0 0,0 0,0 0,0 0,0 0,0 v -3.76 q 0,0 0,0 0,0 0,0 0,0 0,0 0,0 0,0 h -3.696 q 0,0 0,0 0,0 0,0 0,0 0,0 z m 5.432,4.68 2.872,-5.6 h 0.832 l 2.912,5.6 h -1.248 l -0.668,-1.304 h -2.872 l -0.668,1.304 z m 2.32,-2.264 h 1.888 l -0.944,-1.836 z m 6.151994,1.288 v -3.648 h 2.096 q 0.26,0 0.48,0.044 0.22,0.04 0.4,0.128 0.18,0.088 0.316,0.228 0.14,0.14 0.232,0.34 0.092,0.196 0.14,0.456 0.048,0.26 0.048,0.588 0,0.34 -0.048,0.612 -0.044,0.272 -0.136,0.48 -0.092,0.208 -0.228,0.356 -0.136,0.144 -0.316,0.236 -0.18,0.092 -0.404,0.136 -0.22,0.044 -0.484,0.044 z m -1.055997,0.976 h 3.215997 q 0.368,0 0.708,-0.068 0.34,-0.068 0.636,-0.212 0.296,-0.144 0.54,-0.368 0.244,-0.224 0.416,-0.532 0.172,-0.312 0.268,-0.716 0.096,-0.404 0.096,-0.904 0,-0.472 -0.096,-0.86 -0.092,-0.392 -0.264,-0.704 -0.168,-0.312 -0.412,-0.544 -0.24,-0.232 -0.536,-0.384 -0.296,-0.156 -0.64,-0.232 -0.34,-0.076 -0.716,-0.076 h -3.215997 z"
       id="text14"
       style="font-size:8px;line-height:1.25;font-family:'Science Gothic';-inkscape-font-specification:'Science Gothic, Normal';font-variant-ligatures:none;fill:#f9f9f9;stroke-width:0.579039"
       aria-label="SYNESTHESIA ROAD" />
  </g>
</svg>
